<svg height="936" version="1.1" width="670" xmlns="http://www.w3.org/2000/svg" style="background-color: #eeeeee; overflow: hidden; position: relative;" viewBox="195 59 670 936" preserveAspectRatio="xMinYMin"><desc>Created by FW Profile Editor thanks to Raphaeljs library</desc><defs></defs><rect x="0" y="0" width="1873" height="1036" r="0" rx="0" ry="0" fill="#eeeeee" stroke="#000" style="" stroke-width="0"></rect><rect x="666" y="79" width="30" height="30" r="15" rx="15" ry="15" fill="#ffffff" stroke="#666666" style="fill-opacity: 100;" stroke-width="1" fill-opacity="100" transform="matrix(1,0,0,1,0.5,0.5)"></rect><rect x="668" y="949" width="26" height="26" r="13" rx="13" ry="13" fill="#000000" stroke="#666666" style="fill-opacity: 100;" stroke-width="1" fill-opacity="100" transform="matrix(1,0,0,1,0.5,0.5)"></rect><rect x="666" y="159" width="30" height="30" r="0" rx="0" ry="0" fill="#ccffaa" stroke="#666666" style="fill-opacity: 100;" stroke-width="1" fill-opacity="100" transform="matrix(0.7071,0.7071,-0.7071,0.7071,322.4969,-430.5763)"></rect><rect x="235" y="545" width="242" height="98" r="10" rx="10" ry="10" fill="#ffffff" stroke="#666666" style="fill-opacity: 100;" stroke-width="1" fill-opacity="100" transform="matrix(1,0,0,1,0.5,0.5)"></rect><text style="text-anchor: start; font: 10px &quot;Arial&quot;; cursor: default;" x="245" y="581" text-anchor="start" font="10px &quot;Arial&quot;" stroke="none" fill="#000000" font-size="10px" stroke-width="1"><tspan dy="-13.5" style="font-weight: bold;">&#160;S_waterLow&#160;</tspan><tspan dy="12" x="245">&#160;</tspan><tspan dy="12" x="245">&#160;</tspan><tspan dy="12" x="245" style="font-weight: bold;">&#160;Entry:</tspan><tspan x="245" dx="42">&#160;f_water_low</tspan><tspan dy="12" x="245"></tspan></text><path style="" fill="#000000" stroke="#000000" d="M245,578.5L467,578.5" stroke-width="1"></path><path style="stroke-linecap: round; stroke-linejoin: round;" fill="none" stroke="#000000" d="M230,559.1489361702128L215,555L245,525L264.304347826087,537" stroke-width="2" stroke-linecap="round" stroke-linejoin="round" stroke-dasharray="-2"></path><path style="" fill="#000000" stroke="#000000" d="M10,-1L0,5L10,11L7,6L7,4Z" transform="matrix(-0.8493,-0.5279,0.5279,-0.8493,265.4865,543.6221)" stroke-width="1"></path><text style="text-anchor: middle; font: 10px &quot;Arial&quot;; cursor: move;" x="252" y="512" text-anchor="middle" font="10px &quot;Arial&quot;" stroke="none" fill="#000000" stroke-width="1"><tspan dy="4.5">TCLK</tspan></text><rect x="572" y="655" width="218" height="100" r="10" rx="10" ry="10" fill="#ffff99" stroke="#666666" style="fill-opacity: 100;" stroke-width="1" fill-opacity="100" transform="matrix(1,0,0,1,0.5,0.5)"></rect><text style="text-anchor: start; font: 10px &quot;Arial&quot;; cursor: default;" x="582" y="691" text-anchor="start" font="10px &quot;Arial&quot;" stroke="none" fill="#000000" font-size="10px" stroke-width="1"><tspan dy="-13.5" style="font-weight: bold;">&#160;S_saveEeprom_pumpOff&#160;</tspan><tspan dy="12" x="582">&#160;</tspan><tspan dy="12" x="582">&#160;</tspan><tspan dy="12" x="582" style="font-weight: bold;">&#160;Entry:</tspan><tspan x="582" dx="42">&#160;f_pump_off</tspan><tspan dy="12" x="582"></tspan></text><path style="" fill="#000000" stroke="#000000" d="M582,688.5L780,688.5" stroke-width="1"></path><path style="stroke-linecap: round; stroke-linejoin: round;" fill="none" stroke="#000000" d="M681,114L681,141" stroke-width="2" stroke-linecap="round" stroke-linejoin="round" stroke-dasharray="-2"></path><path style="" fill="#000000" stroke="#000000" d="M10,-1L0,5L10,11L7,6L7,4Z" transform="matrix(0,-1,1,0,676,145.5)" stroke-width="1"></path><text style="text-anchor: middle; font: 10px &quot;Arial&quot;; cursor: move;" x="682" y="116" text-anchor="middle" font="10px &quot;Arial&quot;" stroke="none" fill="#000000" stroke-width="1"><tspan dy="4.5"> / &#160;A_readHX712</tspan></text><rect x="617" y="288" width="128" height="100" r="10" rx="10" ry="10" fill="#ccffff" stroke="#666666" style="fill-opacity: 100;" stroke-width="1" fill-opacity="100" transform="matrix(1,0,0,1,0.5,0.5)"></rect><text style="text-anchor: start; font: 10px &quot;Arial&quot;; cursor: default;" x="627" y="324" text-anchor="start" font="10px &quot;Arial&quot;" stroke="none" fill="#000000" font-size="10px" stroke-width="1"><tspan dy="-13.5" style="font-weight: bold;">&#160;S_pumpOn&#160;</tspan><tspan dy="12" x="627">&#160;</tspan><tspan dy="12" x="627">&#160;</tspan><tspan dy="12" x="627" style="font-weight: bold;">&#160;Entry:</tspan><tspan x="627" dx="42">&#160;f_pumpOn</tspan><tspan dy="12" x="627"></tspan></text><path style="" fill="#000000" stroke="#000000" d="M627,321.5L735,321.5" stroke-width="1"></path><rect x="606" y="427" width="150" height="100" r="10" rx="10" ry="10" fill="#ffffff" stroke="#666666" style="fill-opacity: 100;" stroke-width="1" fill-opacity="100" transform="matrix(1,0,0,1,0.5,0.5)"></rect><text style="text-anchor: start; font: 10px &quot;Arial&quot;; cursor: default;" x="616" y="463" text-anchor="start" font="10px &quot;Arial&quot;" stroke="none" fill="#000000" font-size="10px" stroke-width="1"><tspan dy="-13.5" style="font-weight: bold;">&#160;S_measureHX&#160;</tspan><tspan dy="12" x="616">&#160;</tspan><tspan dy="12" x="616">&#160;</tspan><tspan dy="12" x="616" style="font-weight: bold;">&#160;Entry:</tspan><tspan x="616" dx="42">&#160;f_readHX712</tspan><tspan dy="12" x="616"></tspan></text><path style="" fill="#000000" stroke="#000000" d="M616,460.5L746,460.5" stroke-width="1"></path><path style="stroke-linecap: round; stroke-linejoin: round;" fill="none" stroke="#000000" d="M681,393L681,419" stroke-width="2" stroke-linecap="round" stroke-linejoin="round" stroke-dasharray="-2"></path><path style="" fill="#000000" stroke="#000000" d="M10,-1L0,5L10,11L7,6L7,4Z" transform="matrix(0,-1,1,0,676,423.5)" stroke-width="1"></path><text style="text-anchor: middle; font: 10px &quot;Arial&quot;; cursor: move;" x="707" y="404" text-anchor="middle" font="10px &quot;Arial&quot;" stroke="none" fill="#000000" stroke-width="1"><tspan dy="4.5">TCLK</tspan></text><path style="stroke-linecap: round; stroke-linejoin: round;" fill="none" stroke="#000000" d="M651,174L540,174L540,477L598,477" stroke-width="2" stroke-linecap="round" stroke-linejoin="round" stroke-dasharray="-2"></path><path style="" fill="#000000" stroke="#000000" d="M10,-1L0,5L10,11L7,6L7,4Z" transform="matrix(-1,0,0,-1,602.5,482)"></path><text style="text-anchor: middle; font: 10px &quot;Arial&quot;; cursor: move;" x="540" y="288" text-anchor="middle" font="10px &quot;Arial&quot;" stroke="none" fill="#000000"><tspan dy="4.5">2:  [&#160;G_mwKlMaxUpumpOn] </tspan></text><rect x="666" y="579" width="30" height="30" r="0" rx="0" ry="0" fill="#ccffaa" stroke="#666666" style="fill-opacity: 100;" stroke-width="1" fill-opacity="100" transform="matrix(0.7071,0.7071,-0.7071,0.7071,619.4817,-307.5611)"></rect><path style="stroke-linecap: round; stroke-linejoin: round;" fill="none" stroke="#000000" d="M636.4430379746835,532L617,556L659.6343118377555,581.3141226536674" stroke-width="2" stroke-linecap="round" stroke-linejoin="round" stroke-dasharray="-2"></path><path style="" fill="#000000" stroke="#000000" d="M10,-1L0,5L10,11L7,6L7,4Z" transform="matrix(-0.8599,-0.5105,0.5105,-0.8599,660.951,587.9108)" stroke-width="1"></path><text style="text-anchor: middle; font: 10px &quot;Arial&quot;; cursor: move;" x="648" y="558" text-anchor="middle" font="10px &quot;Arial&quot;" stroke="none" fill="#000000" stroke-width="1"><tspan dy="4.5">TCLK</tspan></text><path style="stroke-linecap: round; stroke-linejoin: round;" fill="none" stroke="#000000" d="M696.9690006829912,579.5889506031542L722,557L710.725,535" stroke-width="2" stroke-linecap="round" stroke-linejoin="round" stroke-dasharray="-2"></path><path style="" fill="#000000" stroke="#000000" d="M10,-1L0,5L10,11L7,6L7,4Z" transform="matrix(0.4561,0.8899,-0.8899,0.4561,713.1223,528.7148)" stroke-width="1"></path><text style="text-anchor: middle; font: 10px &quot;Arial&quot;; cursor: move;" x="718" y="550" text-anchor="middle" font="10px &quot;Arial&quot;" stroke="none" fill="#000000" stroke-width="1"><tspan dy="4.5">4: </tspan></text><rect x="620" y="805" width="122" height="100" r="10" rx="10" ry="10" fill="#ffffff" stroke="#666666" style="fill-opacity: 100;" stroke-width="1" fill-opacity="100" transform="matrix(1,0,0,1,0.5,0.5)"></rect><text style="text-anchor: start; font: 10px &quot;Arial&quot;; cursor: default;" x="630" y="841" text-anchor="start" font="10px &quot;Arial&quot;" stroke="none" fill="#000000" font-size="10px" stroke-width="1"><tspan dy="-13.5" style="font-weight: bold;">&#160;S_setRGB&#160;</tspan><tspan dy="12" x="630">&#160;</tspan><tspan dy="12" x="630">&#160;</tspan><tspan dy="12" x="630" style="font-weight: bold;">&#160;Entry:</tspan><tspan x="630" dx="42">&#160;f_setRGB</tspan><tspan dy="12" x="630"></tspan></text><path style="" fill="#000000" stroke="#000000" d="M630,838.5L732,838.5" stroke-width="1"></path><path style="stroke-linecap: round; stroke-linejoin: round;" fill="none" stroke="#000000" d="M681,760L681,797" stroke-width="2" stroke-linecap="round" stroke-linejoin="round" stroke-dasharray="-2"></path><path style="" fill="#000000" stroke="#000000" d="M10,-1L0,5L10,11L7,6L7,4Z" transform="matrix(0,-1,1,0,676,801.5)" stroke-width="1"></path><text style="text-anchor: middle; font: 10px &quot;Arial&quot;; cursor: move;" x="681" y="769" text-anchor="middle" font="10px &quot;Arial&quot;" stroke="none" fill="#000000" stroke-width="1"><tspan dy="4.5">TCLK</tspan></text><path style="stroke-linecap: round; stroke-linejoin: round;" fill="none" stroke="#000000" d="M711,174L840,174L840,850L750,852.8301886792452" stroke-width="2" stroke-linecap="round" stroke-linejoin="round" stroke-dasharray="-2"></path><path style="" fill="#000000" stroke="#000000" d="M10,-1L0,5L10,11L7,6L7,4Z" transform="matrix(0.9995,-0.0314,0.0314,0.9995,745.3451,847.9741)" stroke-width="1"></path><text style="text-anchor: middle; font: 10px &quot;Arial&quot;; cursor: move;" x="840" y="482" text-anchor="middle" font="10px &quot;Arial&quot;" stroke="none" fill="#000000" stroke-width="1"><tspan dy="4.5">3: </tspan></text><path style="stroke-linecap: round; stroke-linejoin: round;" fill="none" stroke="#000000" d="M681,910L681,941" stroke-width="2" stroke-linecap="round" stroke-linejoin="round" stroke-dasharray="-2"></path><path style="" fill="#000000" stroke="#000000" d="M10,-1L0,5L10,11L7,6L7,4Z" transform="matrix(0,-1,1,0,676,945.5)" stroke-width="1"></path><text style="text-anchor: middle; font: 10px &quot;Arial&quot;; cursor: move;" x="681" y="916" text-anchor="middle" font="10px &quot;Arial&quot;" stroke="none" fill="#000000" stroke-width="1"><tspan dy="4.5">TCLK</tspan></text><path style="stroke-linecap: round; stroke-linejoin: round;" fill="none" stroke="#000000" d="M681,624L681,647" stroke-width="2" stroke-linecap="round" stroke-linejoin="round" stroke-dasharray="-2"></path><path style="" fill="#000000" stroke="#000000" d="M10,-1L0,5L10,11L7,6L7,4Z" transform="matrix(0,-1,1,0,676,651.5)" stroke-width="1"></path><text style="text-anchor: middle; font: 10px &quot;Arial&quot;; cursor: move;" x="681" y="625" text-anchor="middle" font="10px &quot;Arial&quot;" stroke="none" fill="#000000" stroke-width="1"><tspan dy="4.5">3:  [&#160;G_mwGrMax] </tspan></text><path style="stroke-linecap: round; stroke-linejoin: round;" fill="none" stroke="#000000" d="M651,594L485,594" stroke-width="2" stroke-linecap="round" stroke-linejoin="round" stroke-dasharray="-2"></path><path style="" fill="#000000" stroke="#000000" d="M10,-1L0,5L10,11L7,6L7,4Z" transform="matrix(1,0,0,1,480.5,589)" stroke-width="1"></path><text style="text-anchor: middle; font: 10px &quot;Arial&quot;; cursor: move;" x="568" y="584" text-anchor="middle" font="10px &quot;Arial&quot;" stroke="none" fill="#000000" stroke-width="1"><tspan dy="4.5">2:  [&#160;G_pumpTimGrTmax] </tspan></text><path style="stroke-linecap: round; stroke-linejoin: round;" fill="none" stroke="#000000" d="M681,204L681,280" stroke-width="2" stroke-linecap="round" stroke-linejoin="round" stroke-dasharray="-2"></path><path style="" fill="#000000" stroke="#000000" d="M10,-1L0,5L10,11L7,6L7,4Z" transform="matrix(0,-1,1,0,676,284.5)" stroke-width="1"></path><text style="text-anchor: middle; font: 10px &quot;Arial&quot;; cursor: move;" x="682" y="232" text-anchor="middle" font="10px &quot;Arial&quot;" stroke="none" fill="#000000" stroke-width="1"><tspan dy="4.5">1:  [&#160;G_mwKleinerMin] </tspan></text><rect x="790.0093134399503" y="589" width="10" height="10" r="5" rx="5" ry="5" fill="#ff0000" stroke="#000" style="display: none;"></rect><rect x="708.4936857800931" y="589" width="10" height="10" r="5" rx="5" ry="5" fill="#000000" stroke="#000000" style="display: none;"></rect><path style="stroke-linecap: round; stroke-linejoin: round;" fill="none" stroke="#000000" d="M711,594L815,594L815,805L750,829.2537313432834" stroke-width="2" stroke-linecap="round" stroke-linejoin="round" stroke-dasharray="-2"></path><path style="" fill="#000000" stroke="#000000" d="M10,-1L0,5L10,11L7,6L7,4Z" transform="matrix(0.9369,-0.3496,0.3496,0.9369,744.036,826.1424)"></path><text style="text-anchor: middle; font: 10px &quot;Arial&quot;; cursor: move;" x="771" y="581" text-anchor="middle" font="10px &quot;Arial&quot;" stroke="none" fill="#000000"><tspan dy="4.5">1:  [&#160;G_switch_on] </tspan></text></svg>