<svg height="757" version="1.1" width="671" xmlns="http://www.w3.org/2000/svg" style="background-color: #eeeeee; overflow: hidden; position: relative;" viewBox="428 72 671 757" preserveAspectRatio="xMinYMin"><desc>Created by FW Profile Editor thanks to Raphaeljs library</desc><defs></defs><rect x="0" y="0" width="1873" height="1036" r="0" rx="0" ry="0" fill="#eeeeee" stroke="#000" style="" stroke-width="0"></rect><rect x="701" y="92" width="30" height="30" r="15" rx="15" ry="15" fill="#ffffff" stroke="#666666" style="fill-opacity: 100;" stroke-width="1" fill-opacity="100" transform="matrix(1,0,0,1,0.5,0.5)"></rect><rect x="701" y="409" width="30" height="30" r="0" rx="0" ry="0" fill="#ccffaa" stroke="#666666" style="fill-opacity: 100;" stroke-width="1" fill-opacity="100" transform="matrix(0.7071,0.7071,-0.7071,0.7071,509.5248,-382.1017)"></rect><rect x="983" y="690" width="26" height="26" r="13" rx="13" ry="13" fill="#000000" stroke="#666666" style="fill-opacity: 100;" stroke-width="1" fill-opacity="100" transform="matrix(1,0,0,1,0.5,0.5)"></rect><rect x="590" y="185" width="252" height="152" r="10" rx="10" ry="10" fill="#ffcc99" stroke="#666666" style="fill-opacity: 100;" stroke-width="1" fill-opacity="100" transform="matrix(1,0,0,1,0.5,0.5)"></rect><text style="text-anchor: start; font: 10px &quot;Arial&quot;; cursor: default;" x="600" y="221" text-anchor="start" font="10px &quot;Arial&quot;" stroke="none" fill="#000000" font-size="10px" stroke-width="1"><tspan dy="-13.5" style="font-weight: bold;">&#160;ES_waterProg_enter&#160;</tspan><tspan dy="12" x="600">&#160;</tspan><tspan dy="12" x="600">&#160;</tspan><tspan dy="12" x="600" style="font-weight: bold;">&#160;Entry:</tspan><tspan x="600" dx="42">&#160;f_es_menuFsm_waterProg_enter</tspan><tspan dy="12" x="600"></tspan></text><path style="" fill="#000000" stroke="#000000" d="M600,218.5L832,218.5" stroke-width="1"></path><path style="stroke-linecap: round; stroke-linejoin: round;" fill="none" stroke="#000000" d="M675.5000000000001,342L660,373L697.049796088499,406.74177858059727" stroke-width="2" stroke-linecap="round" stroke-linejoin="round" stroke-dasharray="-2"></path><path style="" fill="#000000" stroke="#000000" d="M10,-1L0,5L10,11L7,6L7,4Z" transform="matrix(-0.7393,-0.6733,0.6733,-0.7393,697.0102,413.4685)" stroke-width="1"></path><text style="text-anchor: middle; font: 10px &quot;Arial&quot;; cursor: move;" x="665" y="368" text-anchor="middle" font="10px &quot;Arial&quot;" stroke="none" fill="#000000" stroke-width="1"><tspan dy="4.5">TCLK</tspan></text><path style="stroke-linecap: round; stroke-linejoin: round;" fill="none" stroke="#000000" d="M732.2407695792307,410.59492034730164L779,372L763.6756756756757,345" stroke-width="2" stroke-linecap="round" stroke-linejoin="round" stroke-dasharray="-2"></path><path style="" fill="#000000" stroke="#000000" d="M10,-1L0,5L10,11L7,6L7,4Z" transform="matrix(0.4936,0.8697,-0.8697,0.4936,765.8029,338.6184)" stroke-width="1"></path><text style="text-anchor: middle; font: 10px &quot;Arial&quot;; cursor: move;" x="767" y="371" text-anchor="middle" font="10px &quot;Arial&quot;" stroke="none" fill="#000000" stroke-width="1"><tspan dy="4.5">3: </tspan></text><rect x="913" y="520" width="166" height="100" r="10" rx="10" ry="10" fill="#ffcccc" stroke="#666666" style="fill-opacity: 100;" stroke-width="1" fill-opacity="100" transform="matrix(1,0,0,1,0.5,0.5)"></rect><text style="text-anchor: start; font: 10px &quot;Arial&quot;; cursor: default;" x="923" y="556" text-anchor="start" font="10px &quot;Arial&quot;" stroke="none" fill="#000000" font-size="10px" stroke-width="1"><tspan dy="-13.5" style="font-weight: bold;">&#160;ES_waterProg_exit&#160;</tspan><tspan dy="12" x="923">&#160;</tspan><tspan dy="12" x="923">&#160;</tspan><tspan dy="12" x="923" style="font-weight: bold;">&#160;Entry:</tspan><tspan x="923" dx="42">&#160;f_waterProg_exit</tspan><tspan dy="12" x="923"></tspan></text><path style="" fill="#000000" stroke="#000000" d="M923,553.5L1069,553.5" stroke-width="1"></path><path style="stroke-linecap: round; stroke-linejoin: round;" fill="none" stroke="#000000" d="M996,625L996,682" stroke-width="2" stroke-linecap="round" stroke-linejoin="round" stroke-dasharray="-2"></path><path style="" fill="#000000" stroke="#000000" d="M10,-1L0,5L10,11L7,6L7,4Z" transform="matrix(0,-1,1,0,991,686.5)" stroke-width="1"></path><text style="text-anchor: middle; font: 10px &quot;Arial&quot;; cursor: move;" x="996" y="643" text-anchor="middle" font="10px &quot;Arial&quot;" stroke="none" fill="#000000" stroke-width="1"><tspan dy="4.5">TCLK</tspan></text><rect x="467" y="520" width="164" height="100" r="10" rx="10" ry="10" fill="#ffff99" stroke="#666666" style="fill-opacity: 100;" stroke-width="1" fill-opacity="100" transform="matrix(1,0,0,1,0.5,0.5)"></rect><text style="text-anchor: start; font: 10px &quot;Arial&quot;; cursor: default;" x="477" y="556" text-anchor="start" font="10px &quot;Arial&quot;" stroke="none" fill="#000000" font-size="10px" stroke-width="1"><tspan dy="-13.5" style="font-weight: bold;">&#160;ES_waterProg_run&#160;</tspan><tspan dy="12" x="477">&#160;</tspan><tspan dy="12" x="477">&#160;</tspan><tspan dy="12" x="477" style="font-weight: bold;">&#160;Entry:</tspan><tspan x="477" dx="42">&#160;f_waterProg_run</tspan><tspan dy="12" x="477"></tspan></text><path style="" fill="#000000" stroke="#000000" d="M477,553.5L621,553.5" stroke-width="1"></path><path style="stroke-linecap: round; stroke-linejoin: round;" fill="none" stroke="#000000" d="M699.9524388410455,438.0296043665112L615.3424657534246,512" stroke-width="2" stroke-linecap="round" stroke-linejoin="round" stroke-dasharray="-2"></path><path style="" fill="#000000" stroke="#000000" d="M10,-1L0,5L10,11L7,6L7,4Z" transform="matrix(0.7529,-0.6582,0.6582,0.7529,608.6637,511.1976)" stroke-width="1"></path><text style="text-anchor: middle; font: 10px &quot;Arial&quot;; cursor: move;" x="616" y="460" text-anchor="middle" font="10px &quot;Arial&quot;" stroke="none" fill="#000000" stroke-width="1"><tspan dy="4.5">1:  [&#160;G_waterProg_run] </tspan></text><rect x="468" y="709" width="162" height="100" r="10" rx="10" ry="10" fill="#ccffff" stroke="#666666" style="fill-opacity: 100;" stroke-width="1" fill-opacity="100" transform="matrix(1,0,0,1,0.5,0.5)"></rect><text style="text-anchor: start; font: 10px &quot;Arial&quot;; cursor: default;" x="478" y="745" text-anchor="start" font="10px &quot;Arial&quot;" stroke="none" fill="#000000" font-size="10px" stroke-width="1"><tspan dy="-13.5" style="font-weight: bold;">&#160;ES_waterProg_runing&#160;</tspan><tspan dy="12" x="478">&#160;</tspan><tspan dy="12" x="478">&#160;</tspan><tspan dy="12" x="478" style="font-weight: bold;">&#160;Entry:</tspan><tspan x="478" dx="42">&#160;f_getSwitch</tspan><tspan dy="12" x="478"></tspan></text><path style="" fill="#000000" stroke="#000000" d="M478,742.5L620,742.5" stroke-width="1"></path><path style="stroke-linecap: round; stroke-linejoin: round;" fill="none" stroke="#000000" d="M549,625L549,701" stroke-width="2" stroke-linecap="round" stroke-linejoin="round" stroke-dasharray="-2"></path><path style="" fill="#000000" stroke="#000000" d="M10,-1L0,5L10,11L7,6L7,4Z" transform="matrix(0,-1,1,0,544,705.5)" stroke-width="1"></path><text style="text-anchor: middle; font: 10px &quot;Arial&quot;; cursor: move;" x="549" y="653" text-anchor="middle" font="10px &quot;Arial&quot;" stroke="none" fill="#000000" stroke-width="1"><tspan dy="4.5">TCLK</tspan></text><path style="stroke-linecap: round; stroke-linejoin: round;" fill="none" stroke="#000000" d="M463,724.940594059406L448,719L478,689L490.17142857142863,701" stroke-width="2" stroke-linecap="round" stroke-linejoin="round" stroke-dasharray="-2"></path><path style="" fill="#000000" stroke="#000000" d="M10,-1L0,5L10,11L7,6L7,4Z" transform="matrix(-0.7121,-0.7021,0.7021,-0.7121,489.8655,707.7199)" stroke-width="1"></path><text style="text-anchor: middle; font: 10px &quot;Arial&quot;; cursor: move;" x="483" y="678" text-anchor="middle" font="10px &quot;Arial&quot;" stroke="none" fill="#000000" stroke-width="1"><tspan dy="4.5">2: TCLK</tspan></text><path style="stroke-linecap: round; stroke-linejoin: round;" fill="none" stroke="#000000" d="M716,127L716,177" stroke-width="2" stroke-linecap="round" stroke-linejoin="round" stroke-dasharray="-2"></path><path style="" fill="#000000" stroke="#000000" d="M10,-1L0,5L10,11L7,6L7,4Z" transform="matrix(0,-1,1,0,711,181.5)" stroke-width="1"></path><text style="text-anchor: middle; font: 10px &quot;Arial&quot;; cursor: move;" x="717" y="141" text-anchor="middle" font="10px &quot;Arial&quot;" stroke="none" fill="#000000" stroke-width="1"><tspan dy="4.5"> / &#160;f_waterProg_preenter</tspan></text><path style="stroke-linecap: round; stroke-linejoin: round;" fill="none" stroke="#000000" d="M735.5002478234398,434.16798636507934L905,522.5500000000001" stroke-width="2" stroke-linecap="round" stroke-linejoin="round" stroke-dasharray="-2"></path><path style="" fill="#000000" stroke="#000000" d="M10,-1L0,5L10,11L7,6L7,4Z" transform="matrix(-0.8867,-0.4623,0.4623,-0.8867,906.6784,529.0641)" stroke-width="1"></path><text style="text-anchor: middle; font: 10px &quot;Arial&quot;; cursor: move;" x="845" y="465" text-anchor="middle" font="10px &quot;Arial&quot;" stroke="none" fill="#000000" stroke-width="1"><tspan dy="4.5">2:  [&#160;G_waterProg_exit] </tspan></text><rect x="891.1256070322802" y="512.9226379525462" width="10" height="10" r="5" rx="5" ry="5" fill="#ff0000" stroke="#000" style="display: none;"></rect><rect x="732.7209731505314" y="430.3259359999199" width="10" height="10" r="5" rx="5" ry="5" fill="#000000" stroke="#000000" style="display: none;"></rect><rect x="738" y="709" width="174" height="100" r="10" rx="10" ry="10" fill="#ffff99" stroke="#6599ff" style="fill-opacity: 100;" stroke-width="2" fill-opacity="100" transform="matrix(1,0,0,1,0.5,0.5)"></rect><text style="text-anchor: start; font: 10px &quot;Arial&quot;; cursor: default;" x="748" y="745" text-anchor="start" font="10px &quot;Arial&quot;" stroke="none" fill="#000000" font-size="10px" stroke-width="1"><tspan dy="-13.5" style="font-weight: bold;">&#160;ES_waterProg_stopping&#160;</tspan><tspan dy="12" x="748">&#160;</tspan><tspan dy="12" x="748">&#160;</tspan><tspan dy="12" x="748" style="font-weight: bold;">&#160;Entry:</tspan><tspan x="748" dx="42">&#160;f_waterProg_stop</tspan><tspan dy="12" x="748"></tspan></text><path style="" fill="#000000" stroke="#000000" d="M748,742.5L902,742.5" stroke-width="1"></path><path style="stroke-linecap: round; stroke-linejoin: round;" fill="none" stroke="#000000" d="M635,759L730,759" stroke-width="2" stroke-linecap="round" stroke-linejoin="round" stroke-dasharray="-2"></path><path style="" fill="#000000" stroke="#000000" d="M10,-1L0,5L10,11L7,6L7,4Z" transform="matrix(-1,0,0,-1,734.5,764)" stroke-width="1"></path><text style="text-anchor: middle; font: 10px &quot;Arial&quot;; cursor: move;" x="682" y="749" text-anchor="middle" font="10px &quot;Arial&quot;" stroke="none" fill="#000000" stroke-width="1"><tspan dy="4.5">1: TCLK [&#160;G_switchOff] </tspan></text><path style="stroke-linecap: round; stroke-linejoin: round;" fill="none" stroke="#000000" d="M874.7619047619048,704L943.5238095238094,628" stroke-width="2" stroke-linecap="round" stroke-linejoin="round" stroke-dasharray="-2"></path><path style="" fill="#000000" stroke="#000000" d="M10,-1L0,5L10,11L7,6L7,4Z" transform="matrix(-0.6709,0.7415,-0.7415,-0.6709,950.2506,628.0177)" stroke-width="1"></path><text style="text-anchor: middle; font: 10px &quot;Arial&quot;; cursor: move;" x="909" y="655" text-anchor="middle" font="10px &quot;Arial&quot;" stroke="none" fill="#000000" stroke-width="1"><tspan dy="4.5">TCLK</tspan></text><rect x="907" y="724" width="10" height="10" r="5" rx="5" ry="5" fill="#b9d5f1" stroke="#3399ff" transform="matrix(1,0,0,1,0.5,0.5)" style="cursor: move;"></rect><path style="cursor: nw-resize;" fill="#ffffff" stroke="#6599ff" d="M0,0L10,0L10,-10M0,0L10,-10M4,0L10,-6" stroke-width="2" transform="matrix(1,0,0,1,902.5,809.5)"></path></svg>