<svg height="1007" version="1.1" width="895" xmlns="http://www.w3.org/2000/svg" style="background-color: #eeeeee; overflow: hidden; position: relative;" viewBox="174 -174 895 1007" preserveAspectRatio="xMinYMin"><desc>Created by FW Profile Editor thanks to Raphaeljs library</desc><defs></defs><rect x="0" y="-180" width="1873" height="1036" r="0" rx="0" ry="0" fill="#eeeeee" stroke="#000" style="" stroke-width="0"></rect><rect x="558" y="-154" width="30" height="30" r="15" rx="15" ry="15" fill="#ffffff" stroke="#666666" style="fill-opacity: 100;" stroke-width="1" fill-opacity="100" transform="matrix(1,0,0,1,0.5,0.5)"></rect><rect x="558" y="437" width="30" height="30" r="0" rx="0" ry="0" fill="#ccffaa" stroke="#666666" style="fill-opacity: 100;" stroke-width="1" fill-opacity="100" transform="matrix(0.7071,0.7071,-0.7071,0.7071,487.4401,-272.7845)"></rect><rect x="675" y="537" width="260" height="276" r="10" rx="10" ry="10" fill="#ffcc99" stroke="#666666" style="fill-opacity: 100;" stroke-width="1" fill-opacity="100" transform="matrix(1,0,0,1,0.5,0.5)"></rect><text style="text-anchor: start; font: 10px &quot;Arial&quot;; cursor: default;" x="685" y="573" text-anchor="start" font="10px &quot;Arial&quot;" stroke="none" fill="#000000" font-size="10px" stroke-width="1"><tspan dy="-13.5" style="font-weight: bold;">&#160;S_runHX712&#160;</tspan><tspan dy="12" x="685">&#160;</tspan><tspan dy="12" x="685">&#160;</tspan><tspan dy="12" x="685" style="font-weight: bold;">&#160;eSM:</tspan><tspan x="685" dx="42">ES_runHX712</tspan><tspan dy="12" x="685"></tspan></text><path style="" fill="#000000" stroke="#000000" d="M685,570.5L925,570.5" stroke-width="1"></path><rect x="194" y="542" width="260" height="266" r="10" rx="10" ry="10" fill="#ffcc99" stroke="#666666" style="fill-opacity: 100;" stroke-width="1" fill-opacity="100" transform="matrix(1,0,0,1,0.5,0.5)"></rect><text style="text-anchor: start; font: 10px &quot;Arial&quot;; cursor: default;" x="204" y="578" text-anchor="start" font="10px &quot;Arial&quot;" stroke="none" fill="#000000" font-size="10px" stroke-width="1"><tspan dy="-13.5" style="font-weight: bold;">&#160;S_progHX712&#160;</tspan><tspan dy="12" x="204">&#160;</tspan><tspan dy="12" x="204">&#160;</tspan><tspan dy="12" x="204" style="font-weight: bold;">&#160;eSM:</tspan><tspan x="204" dx="42">ES_waterProg</tspan><tspan dy="12" x="204"></tspan></text><path style="" fill="#000000" stroke="#000000" d="M204,575.5L444,575.5" stroke-width="1"></path><rect x="558" y="-48" width="30" height="30" r="0" rx="0" ry="0" fill="#ccffaa" stroke="#666666" style="fill-opacity: 100;" stroke-width="1" fill-opacity="100" transform="matrix(0.7071,0.7071,-0.7071,0.7071,144.4933,-414.8377)"></rect><rect x="558" y="171" width="30" height="30" r="0" rx="0" ry="0" fill="#ccffaa" stroke="#666666" style="fill-opacity: 100;" stroke-width="1" fill-opacity="100" transform="matrix(0.7071,0.7071,-0.7071,0.7071,299.3497,-350.694)"></rect><rect x="479" y="30" width="188" height="78" r="10" rx="10" ry="10" fill="#ffffff" stroke="#666666" style="fill-opacity: 100;" stroke-width="1" fill-opacity="100" transform="matrix(1,0,0,1,0.5,0.5)"></rect><text style="text-anchor: start; font: 10px &quot;Arial&quot;; cursor: default;" x="489" y="66" text-anchor="start" font="10px &quot;Arial&quot;" stroke="none" fill="#000000" font-size="10px" stroke-width="1"><tspan dy="-13.5" style="font-weight: bold;">&#160;S_getLdrValue&#160;</tspan><tspan dy="12" x="489">&#160;</tspan><tspan dy="12" x="489">&#160;</tspan><tspan dy="12" x="489" style="font-weight: bold;">&#160;Entry:</tspan><tspan x="489" dx="42">&#160;f_getLdrValue</tspan><tspan dy="12" x="489"></tspan></text><path style="" fill="#000000" stroke="#000000" d="M489,63.5L657,63.5" stroke-width="1"></path><path style="stroke-linecap: round; stroke-linejoin: round;" fill="none" stroke="#000000" d="M573,-3L573,22" stroke-width="2" stroke-linecap="round" stroke-linejoin="round" stroke-dasharray="-2"></path><path style="" fill="#000000" stroke="#000000" d="M10,-1L0,5L10,11L7,6L7,4Z" transform="matrix(0,-1,1,0,568,26.5)" stroke-width="1"></path><text style="text-anchor: middle; font: 10px &quot;Arial&quot;; cursor: move;" x="573" y="-1" text-anchor="middle" font="10px &quot;Arial&quot;" stroke="none" fill="#000000" stroke-width="1"><tspan dy="4.5">2:  [&#160;G_enter_all] </tspan></text><rect x="756" y="144" width="176" height="84" r="10" rx="10" ry="10" fill="#ffcccc" stroke="#666666" style="fill-opacity: 100;" stroke-width="1" fill-opacity="100" transform="matrix(1,0,0,1,0.5,0.5)"></rect><text style="text-anchor: start; font: 10px &quot;Arial&quot;; cursor: default;" x="766" y="180" text-anchor="start" font="10px &quot;Arial&quot;" stroke="none" fill="#000000" font-size="10px" stroke-width="1"><tspan dy="-13.5" style="font-weight: bold;">&#160;S_sleepMode&#160;</tspan><tspan dy="12" x="766">&#160;</tspan><tspan dy="12" x="766">&#160;</tspan><tspan dy="12" x="766" style="font-weight: bold;">&#160;Entry:</tspan><tspan x="766" dx="42">&#160;f_sleepMode</tspan><tspan dy="12" x="766"></tspan></text><path style="" fill="#000000" stroke="#000000" d="M766,177.5L922,177.5" stroke-width="1"></path><path style="stroke-linecap: round; stroke-linejoin: round;" fill="none" stroke="#000000" d="M603,186L748,186" stroke-width="2" stroke-linecap="round" stroke-linejoin="round" stroke-dasharray="-2"></path><path style="" fill="#000000" stroke="#000000" d="M10,-1L0,5L10,11L7,6L7,4Z" transform="matrix(-1,0,0,-1,752.5,191)" stroke-width="1"></path><text style="text-anchor: middle; font: 10px &quot;Arial&quot;; cursor: move;" x="676" y="176" text-anchor="middle" font="10px &quot;Arial&quot;" stroke="none" fill="#000000" stroke-width="1"><tspan dy="4.5">1:  [&#160;G_sleepMode] </tspan></text><path style="stroke-linecap: round; stroke-linejoin: round;" fill="none" stroke="#000000" d="M573,113L573,153" stroke-width="2" stroke-linecap="round" stroke-linejoin="round" stroke-dasharray="-2"></path><path style="" fill="#000000" stroke="#000000" d="M10,-1L0,5L10,11L7,6L7,4Z" transform="matrix(0,-1,1,0,568,157.5)" stroke-width="1"></path><text style="text-anchor: middle; font: 10px &quot;Arial&quot;; cursor: move;" x="573" y="123" text-anchor="middle" font="10px &quot;Arial&quot;" stroke="none" fill="#000000" stroke-width="1"><tspan dy="4.5">TCLK</tspan></text><path style="stroke-linecap: round; stroke-linejoin: round;" fill="none" stroke="#000000" d="M550.718071742821,443.46920461010865L398,385L398,69L471,69.00000000000001" stroke-width="2" stroke-linecap="round" stroke-linejoin="round" stroke-dasharray="-2"></path><path style="" fill="#000000" stroke="#000000" d="M10,-1L0,5L10,11L7,6L7,4Z" transform="matrix(-1,0,0,-1,475.5,74)" stroke-width="1"></path><text style="text-anchor: middle; font: 10px &quot;Arial&quot;; cursor: move;" x="399" y="265" text-anchor="middle" font="10px &quot;Arial&quot;" stroke="none" fill="#000000" stroke-width="1"><tspan dy="4.5">3:  [&#160;G_runLDR_atTime] </tspan></text><path style="stroke-linecap: round; stroke-linejoin: round;" fill="none" stroke="#000000" d="M573,-119L573,-66" stroke-width="2" stroke-linecap="round" stroke-linejoin="round" stroke-dasharray="-2"></path><path style="" fill="#000000" stroke="#000000" d="M10,-1L0,5L10,11L7,6L7,4Z" transform="matrix(0,-1,1,0,568,-61.5)" stroke-width="1"></path><text style="text-anchor: middle; font: 10px &quot;Arial&quot;; cursor: move;" x="573" y="-103" text-anchor="middle" font="10px &quot;Arial&quot;" stroke="none" fill="#000000" stroke-width="1"><tspan dy="4.5"> / &#160;A_INIT</tspan></text><path style="stroke-linecap: round; stroke-linejoin: round;" fill="none" stroke="#000000" d="M603,452L803,452L803.6905829596412,529" stroke-width="2" stroke-linecap="round" stroke-linejoin="round" stroke-dasharray="-2"></path><path style="" fill="#000000" stroke="#000000" d="M10,-1L0,5L10,11L7,6L7,4Z" transform="matrix(-0.009,-1,1,-0.009,798.7311,533.5447)" stroke-width="1"></path><text style="text-anchor: middle; font: 10px &quot;Arial&quot;; cursor: move;" x="741" y="442" text-anchor="middle" font="10px &quot;Arial&quot;" stroke="none" fill="#000000" stroke-width="1"><tspan dy="4.5">2:  [&#160;G_runHX712_atTime] </tspan></text><path style="stroke-linecap: round; stroke-linejoin: round;" fill="none" stroke="#000000" d="M543,452L322,452L322.7354260089686,534" stroke-width="2" stroke-linecap="round" stroke-linejoin="round" stroke-dasharray="-2"></path><path style="" fill="#000000" stroke="#000000" d="M10,-1L0,5L10,11L7,6L7,4Z" transform="matrix(-0.009,-1,1,-0.009,317.776,538.5447)" stroke-width="1"></path><text style="text-anchor: middle; font: 10px &quot;Arial&quot;; cursor: move;" x="391" y="442" text-anchor="middle" font="10px &quot;Arial&quot;" stroke="none" fill="#000000" stroke-width="1"><tspan dy="4.5">1:  [&#160;G_progHX712Mode] </tspan></text><rect x="510" y="259" width="126" height="100" r="10" rx="10" ry="10" fill="#ffffff" stroke="#666666" style="fill-opacity: 100;" stroke-width="1" fill-opacity="100" transform="matrix(1,0,0,1,0.5,0.5)"></rect><text style="text-anchor: start; font: 10px &quot;Arial&quot;; cursor: default;" x="520" y="295" text-anchor="start" font="10px &quot;Arial&quot;" stroke="none" fill="#000000" font-size="10px" stroke-width="1"><tspan dy="-13.5" style="font-weight: bold;">&#160;S_START&#160;</tspan><tspan dy="12" x="520">&#160;</tspan><tspan dy="12" x="520">&#160;</tspan><tspan dy="12" x="520" style="font-weight: bold;">&#160;Entry:</tspan><tspan x="520" dx="42">&#160;f_getTime</tspan><tspan dy="12" x="520"></tspan></text><path style="" fill="#000000" stroke="#000000" d="M520,292.5L626,292.5" stroke-width="1"></path><path style="stroke-linecap: round; stroke-linejoin: round;" fill="none" stroke="#000000" d="M531.0263157894736,364L515,385L556.4863582515067,432.92389660087844" stroke-width="2" stroke-linecap="round" stroke-linejoin="round" stroke-dasharray="-2"></path><path style="" fill="#000000" stroke="#000000" d="M10,-1L0,5L10,11L7,6L7,4Z" transform="matrix(-0.6545,-0.7561,0.7561,-0.6545,555.6513,439.5987)" stroke-width="1"></path><text style="text-anchor: middle; font: 10px &quot;Arial&quot;; cursor: move;" x="496" y="393" text-anchor="middle" font="10px &quot;Arial&quot;" stroke="none" fill="#000000" stroke-width="1"><tspan dy="4.5">TCLK</tspan></text><path style="stroke-linecap: round; stroke-linejoin: round;" fill="none" stroke="#000000" d="M588.8788001781754,436.8115824382669L619,408L599.9494949494949,367" stroke-width="2" stroke-linecap="round" stroke-linejoin="round" stroke-dasharray="-2"></path><path style="" fill="#000000" stroke="#000000" d="M10,-1L0,5L10,11L7,6L7,4Z" transform="matrix(0.4214,0.9069,-0.9069,0.4214,602.5877,360.8121)" stroke-width="1"></path><text style="text-anchor: middle; font: 10px &quot;Arial&quot;; cursor: move;" x="618" y="396" text-anchor="middle" font="10px &quot;Arial&quot;" stroke="none" fill="#000000" stroke-width="1"><tspan dy="4.5">4: </tspan></text><path style="stroke-linecap: round; stroke-linejoin: round;" fill="none" stroke="#000000" d="M573,216L573,251" stroke-width="2" stroke-linecap="round" stroke-linejoin="round" stroke-dasharray="-2"></path><path style="" fill="#000000" stroke="#000000" d="M10,-1L0,5L10,11L7,6L7,4Z" transform="matrix(0,-1,1,0,568,255.5)" stroke-width="1"></path><text style="text-anchor: middle; font: 10px &quot;Arial&quot;; cursor: move;" x="573" y="223" text-anchor="middle" font="10px &quot;Arial&quot;" stroke="none" fill="#000000" stroke-width="1"><tspan dy="4.5">2: </tspan></text><path style="stroke-linecap: round; stroke-linejoin: round;" fill="none" stroke="#000000" d="M856.0714285714286,532L875,479L875,479L875,309L692,309L644,309" stroke-width="2" stroke-linecap="round" stroke-linejoin="round" stroke-dasharray="-2"></path><path style="" fill="#000000" stroke="#000000" d="M10,-1L0,5L10,11L7,6L7,4Z" transform="matrix(1,0,0,1,639.5,304)" stroke-width="1"></path><text style="text-anchor: middle; font: 10px &quot;Arial&quot;; cursor: move;" x="874" y="301" text-anchor="middle" font="10px &quot;Arial&quot;" stroke="none" fill="#000000" stroke-width="1"><tspan dy="4.5">TCLAK</tspan></text><path style="stroke-linecap: round; stroke-linejoin: round;" fill="none" stroke="#000000" d="M283.1632653061224,537L266,479L266,309L502,309" stroke-width="2" stroke-linecap="round" stroke-linejoin="round" stroke-dasharray="-2"></path><path style="" fill="#000000" stroke="#000000" d="M10,-1L0,5L10,11L7,6L7,4Z" transform="matrix(-1,0,0,-1,506.5,314)" stroke-width="1"></path><text style="text-anchor: middle; font: 10px &quot;Arial&quot;; cursor: move;" x="268" y="299" text-anchor="middle" font="10px &quot;Arial&quot;" stroke="none" fill="#000000" stroke-width="1"><tspan dy="4.5">TCLAK</tspan></text><rect x="837" y="-83" width="212" height="100" r="10" rx="10" ry="10" fill="#ffff99" stroke="#6599ff" style="fill-opacity: 100;" stroke-width="2" fill-opacity="100" transform="matrix(1,0,0,1,0.5,0.5)"></rect><text style="text-anchor: start; font: 10px &quot;Arial&quot;; cursor: default;" x="847" y="-47" text-anchor="start" font="10px &quot;Arial&quot;" stroke="none" fill="#000000" font-size="10px" stroke-width="1"><tspan dy="-13.5" style="font-weight: bold;">&#160;S_progLdrSwitchValue&#160;</tspan><tspan dy="12" x="847">&#160;</tspan><tspan dy="12" x="847">&#160;</tspan><tspan dy="12" x="847" style="font-weight: bold;">&#160;Entry:</tspan><tspan x="847" dx="42">&#160;f_setNewLdrSwitchValue</tspan><tspan dy="12" x="847"></tspan></text><path style="" fill="#000000" stroke="#000000" d="M847,-49.5L1039,-49.5" stroke-width="1"></path><path style="stroke-linecap: round; stroke-linejoin: round;" fill="none" stroke="#000000" d="M603,-33L829,-32.999999999999986" stroke-width="2" stroke-linecap="round" stroke-linejoin="round" stroke-dasharray="-2"></path><path style="" fill="#000000" stroke="#000000" d="M10,-1L0,5L10,11L7,6L7,4Z" transform="matrix(-1,0,0,-1,833.5,-28)" stroke-width="1"></path><text style="text-anchor: middle; font: 10px &quot;Arial&quot;; cursor: move;" x="711" y="-50" text-anchor="middle" font="10px &quot;Arial&quot;" stroke="none" fill="#000000" stroke-width="1"><tspan dy="4.5">1:  [&#160;G_run_ldr_switch_value_update] </tspan></text><path style="stroke-linecap: round; stroke-linejoin: round;" fill="none" stroke="#000000" d="M943,22L943,69L675,69" stroke-width="2" stroke-linecap="round" stroke-linejoin="round" stroke-dasharray="-2"></path><path style="" fill="#000000" stroke="#000000" d="M10,-1L0,5L10,11L7,6L7,4Z" transform="matrix(1,0,0,1,670.5,64)" stroke-width="1"></path><text style="text-anchor: middle; font: 10px &quot;Arial&quot;; cursor: move;" x="831" y="60" text-anchor="middle" font="10px &quot;Arial&quot;" stroke="none" fill="#000000" stroke-width="1"><tspan dy="4.5">TCLK</tspan></text><rect x="1044" y="-68" width="10" height="10" r="5" rx="5" ry="5" fill="#b9d5f1" stroke="#3399ff" transform="matrix(1,0,0,1,0.5,0.5)" style="cursor: move;"></rect><path style="cursor: nw-resize;" fill="#ffffff" stroke="#6599ff" d="M0,0L10,0L10,-10M0,0L10,-10M4,0L10,-6" stroke-width="2" transform="matrix(1,0,0,1,1039.5,17.5)"></path><rect x="707.991992659634" y="181" width="10" height="10" r="5" rx="5" ry="5" fill="#ff0000" stroke="#000" style="display: none;"></rect><rect x="600.5014708699018" y="181" width="10" height="10" r="5" rx="5" ry="5" fill="#000000" stroke="#000000" style="display: none;"></rect></svg>